<svg xmlns="http://www.w3.org/2000/svg" xmlns:xlink="http://www.w3.org/1999/xlink" width="390" height="56.029" viewBox="0 0 390 56.029">
  <defs>
    <linearGradient id="linear-gradient" x1="0.619" y1="0.194" x2="0.512" y2="1.901" gradientUnits="objectBoundingBox">
      <stop offset="0" stop-color="#0856a2"/>
      <stop offset="1" stop-color="#3c108a"/>
    </linearGradient>
  </defs>
  <path id="Union_9" data-name="Union 9" d="M-906.414,290.4a18.9,18.9,0,0,1-7.6-7.5,23.011,23.011,0,0,1-2.746-11.476,23.053,23.053,0,0,1,2.709-11.438,18.732,18.732,0,0,1,7.569-7.463,23.143,23.143,0,0,1,11.181-2.625,23.3,23.3,0,0,1,11.066,2.55,18.423,18.423,0,0,1,7.529,7.313A22.285,22.285,0,0,1-874,270.977a26.5,26.5,0,0,1-.226,3.45H-902.16a7.731,7.731,0,0,0,1.92,5.138,5.879,5.879,0,0,0,4.329,1.688,5.429,5.429,0,0,0,5.272-3.3H-874.9a18.338,18.338,0,0,1-3.8,7.763,19.583,19.583,0,0,1-7.117,5.363,22.633,22.633,0,0,1-9.485,1.95A22.961,22.961,0,0,1-906.414,290.4Zm6.59-27.415a7.108,7.108,0,0,0-2.258,4.313h13.025a5.27,5.27,0,0,0-1.809-4.238,6.73,6.73,0,0,0-4.517-1.538A6.642,6.642,0,0,0-899.825,262.989ZM-1005.568,290.4a19.366,19.366,0,0,1-7.868-7.5,22.248,22.248,0,0,1-2.861-11.476,21.9,21.9,0,0,1,2.9-11.4,19.657,19.657,0,0,1,7.9-7.5,24.048,24.048,0,0,1,11.331-2.625,24.032,24.032,0,0,1,11.331,2.625,19.689,19.689,0,0,1,7.911,7.5,21.937,21.937,0,0,1,2.893,11.4,22.132,22.132,0,0,1-2.893,11.438,19.542,19.542,0,0,1-7.947,7.538,24.217,24.217,0,0,1-11.369,2.625A24.009,24.009,0,0,1-1005.568,290.4Zm6.36-25.5q-2.033,2.25-2.029,6.526,0,4.351,1.956,6.6a6.38,6.38,0,0,0,5.044,2.25,6.657,6.657,0,0,0,5.156-2.288q2.072-2.287,2.07-6.563t-2.07-6.526a6.64,6.64,0,0,0-5.082-2.25A6.532,6.532,0,0,0-999.208,264.9Zm-88.239,23.739q-5.946-4.388-6.4-12.563h15.736a5.842,5.842,0,0,0,1.656,4.05,5.332,5.332,0,0,0,3.689,1.275,5.338,5.338,0,0,0,3.351-1.013,3.347,3.347,0,0,0,1.317-2.813,3.978,3.978,0,0,0-2.184-3.6,38.535,38.535,0,0,0-7.077-2.85,63.694,63.694,0,0,1-8.4-3.338,16.077,16.077,0,0,1-5.571-4.725,13.066,13.066,0,0,1-2.372-8.138,14.809,14.809,0,0,1,2.56-8.738,15.842,15.842,0,0,1,7.078-5.513,26.523,26.523,0,0,1,10.239-1.875q9.261,0,14.795,4.313t5.91,12.113h-16.037a4.7,4.7,0,0,0-1.468-3.6,5.3,5.3,0,0,0-3.577-1.2,3.843,3.843,0,0,0-2.71.975,3.6,3.6,0,0,0-1.054,2.775,3.418,3.418,0,0,0,1.167,2.588,10.732,10.732,0,0,0,2.9,1.875q1.734.788,5.12,1.988a63.168,63.168,0,0,1,8.32,3.413,16.983,16.983,0,0,1,5.647,4.725,12.119,12.119,0,0,1,2.372,7.688,15.521,15.521,0,0,1-2.372,8.476,16.251,16.251,0,0,1-6.852,5.926,23.96,23.96,0,0,1-10.578,2.175Q-1081.5,293.029-1087.447,288.641ZM-1130.7,290.4a18.855,18.855,0,0,1-7.6-7.5,22.954,22.954,0,0,1-2.752-11.476,23,23,0,0,1,2.714-11.438,18.687,18.687,0,0,1,7.563-7.463A23.16,23.16,0,0,1-1119.6,249.9a23.313,23.313,0,0,1,11.068,2.55,18.411,18.411,0,0,1,7.529,7.313,22.3,22.3,0,0,1,2.71,11.213,26.561,26.561,0,0,1-.226,3.45h-27.933a7.722,7.722,0,0,0,1.92,5.138,5.876,5.876,0,0,0,4.329,1.688,5.424,5.424,0,0,0,5.27-3.3h15.736a18.292,18.292,0,0,1-3.8,7.763,19.593,19.593,0,0,1-7.111,5.363,22.675,22.675,0,0,1-9.49,1.95A22.947,22.947,0,0,1-1130.7,290.4Zm6.588-27.415a7.119,7.119,0,0,0-2.259,4.313h13.026a5.257,5.257,0,0,0-1.807-4.238,6.733,6.733,0,0,0-4.517-1.538A6.65,6.65,0,0,0-1124.114,262.989Zm-62.228,25.052q-4.252-4.838-4.25-13.164V250.426h14.681V273a7.976,7.976,0,0,0,1.92,5.663,6.591,6.591,0,0,0,5.08,2.063,6.579,6.579,0,0,0,5.12-2.063,8.09,8.09,0,0,0,1.88-5.663V250.426h14.836V292.5h-14.836v-6a13.869,13.869,0,0,1-5.193,4.613,15.947,15.947,0,0,1-7.606,1.763Q-1182.086,292.879-1186.341,288.041Zm249.1,4.463V269.927a8.092,8.092,0,0,0-1.879-5.663,6.5,6.5,0,0,0-5.045-2.063,6.686,6.686,0,0,0-5.2,2.063,8.1,8.1,0,0,0-1.882,5.663V292.5h-14.759V250.426h14.759v6a14.573,14.573,0,0,1,5.27-4.613,15.967,15.967,0,0,1,7.6-1.763q7.3,0,11.6,4.838t4.29,13.089V292.5Zm-89.818,0q-16.189,0-16.188-15.976V262.652h-5.195V250.426h5.195v-10.2h14.832v10.2h7.68v12.226h-7.68v14.1a3.29,3.29,0,0,0,.791,2.475,3.831,3.831,0,0,0,2.673.75h4.291V292.5Zm-186.416,0V237h14.753v55.5Zm-50.52,0V239.625h25.448q8.132,0,12.76,3.6t4.63,10.126a12.177,12.177,0,0,1-2.445,7.763,12.158,12.158,0,0,1-6.513,4.238,12.533,12.533,0,0,1,7.416,4.613,12.975,12.975,0,0,1,2.748,8.138q0,6.75-4.67,10.576t-13.1,3.825Zm14.755-11.851h8.583q5.573,0,5.573-4.65a4.61,4.61,0,0,0-1.468-3.675,6.189,6.189,0,0,0-4.181-1.275h-8.508Zm0-20.027h7.456q5.571,0,5.572-4.575,0-4.725-5.572-4.725h-7.456Z" transform="translate(1264 -237)" fill="url(#linear-gradient)"/>
</svg>
