<svg xmlns="http://www.w3.org/2000/svg" width="22.033" height="20.094" viewBox="0 0 22.033 20.094">
  <g id="Icon_feather-arrow-right" data-name="Icon feather-arrow-right" opacity="0.45">
    <path id="Path_89" data-name="Path 89" d="M7.883,19.767H27.15a1.383,1.383,0,1,0,0-2.767H7.883a1.383,1.383,0,1,0,0,2.767Z" transform="translate(-6.5 -8.336)" fill="#fff"/>
    <path id="Path_90" data-name="Path 90" d="M27.047,26.594a1.383,1.383,0,0,0,.978-2.362L20.34,16.547l7.685-7.685a1.383,1.383,0,1,0-1.956-1.956l-8.664,8.664a1.383,1.383,0,0,0,0,1.956l8.664,8.664A1.379,1.379,0,0,0,27.047,26.594Z" transform="translate(-17 -6.5)" fill="#fff"/>
  </g>
</svg>
