<svg xmlns="http://www.w3.org/2000/svg" width="107.008" height="111.292" viewBox="0 0 107.008 111.292">
  <path id="Union_10" data-name="Union 10" d="M79.115,111.291c-4.112,0-7-3.306-7-7.406s2.889-7.428,7-7.428v0A6.4,6.4,0,0,1,83.729,98.2V96.866h4.859v14.007h-4.8V109.3h-.054a6.24,6.24,0,0,1-4.577,2Zm1.477-4.128Zm-3.3-3.279a3.278,3.278,0,1,0,6.556,0,3.278,3.278,0,0,0-6.556,0Zm-18.064,5.408h-.046v1.581h-4.8V87.385h4.853V98.2a6.444,6.444,0,0,1,4.632-1.749c4.112,0,7,3.333,7,7.434s-2.883,7.4-7,7.4h-.058A6.264,6.264,0,0,1,59.231,109.293Zm.825-7.757a3.192,3.192,0,0,0-.923,2.35,3.156,3.156,0,0,0,3.27,3.273,3.124,3.124,0,0,0,3.295-3.273,3.211,3.211,0,0,0-3.295-3.3h-.056A3.222,3.222,0,0,0,60.056,101.535Zm-39.122,9.338-3.216-6.528H8.762l-3.214,6.528H0L10.851,88.339h4.774l10.854,22.534Zm-5.074-10.3-2.594-5.267h-.052l-2.594,5.267Zm30.662,10.295v-7.919a2.377,2.377,0,0,0-2.474-2.623,2.153,2.153,0,0,0-2.254,2.189v8.353H36.935v-7.919a2.366,2.366,0,0,0-2.453-2.623,2.17,2.17,0,0,0-2.251,2.354v8.188H27.359V96.451h4.859v1.9h.054a5.87,5.87,0,0,1,4.03-1.9,5.306,5.306,0,0,1,4.905,2.568,6.227,6.227,0,0,1,4.668-2.568c2.583,0,5.485,1.288,5.485,5.2v9.221Zm55.626-.011v-7.919a2.6,2.6,0,0,0-2.531-2.728,2.992,2.992,0,0,0-2.88,2.728v7.919H91.879V87.385h4.859V98.339h.057a5.871,5.871,0,0,1,4.036-1.9c2.581,0,6.178,1.288,6.178,5.2v9.221ZM17.931,58.973c2.035-.216,4.545-.471,6.2-.6,6.393-.491,12.813-.616,19.222-.567,8.54.082,17.067.464,25.585,1.047.311.13.63.244.948.35.8.26,1.608.461,2.409.637.4.084.8.171,1.218.241l1.193.206c1.591.277,3.186.518,4.78.751,3.188.447,4.58.664,7.783.951a40.408,40.408,0,0,1-69.343-3.018Zm69.343,3.018.117-.18-.107.181Zm1.6-2.679c-2.777-.206-12.568-.963-15.35-1.134L72.7,58c-.757-.182-1.507-.382-2.215-.621a6.334,6.334,0,0,1-1.834-.9.872.872,0,0,1-.2-.214.183.183,0,0,1-.016-.032,1.247,1.247,0,0,1,.272-.363,6.919,6.919,0,0,1,1.755-1.112,22.842,22.842,0,0,1,2.118-.9,64.866,64.866,0,0,1,7.229-2.126,10.982,10.982,0,0,0,1.976-.458l-.545-2.088c-.463.1-.921.214-1.376.328a3.858,3.858,0,0,1-.455.054,2.742,2.742,0,0,1-.725-.016.576.576,0,0,1-.172-.038,1.232,1.232,0,0,1-.114-.447,11.162,11.162,0,0,0,2.63-1.153,24.522,24.522,0,0,0,2.7-1.858l.074-.062a1.623,1.623,0,0,0,.272-.271,1.289,1.289,0,0,0,.221-.4c.014-.071.025-.1.044-.209a1.3,1.3,0,0,0,0-.309,1.252,1.252,0,0,0-.308-.681,1.219,1.219,0,0,0-.638-.371,1.866,1.866,0,0,0-.272-.041,2.476,2.476,0,0,0-.433.027,1.677,1.677,0,0,0-.272.054,8.671,8.671,0,0,0-.842.23A14.18,14.18,0,0,0,80,44.594a9.916,9.916,0,0,0-1.551.814,6.234,6.234,0,0,0-1.439,1.231c-.057.065-.109.135-.161.2a1.707,1.707,0,0,1-.5-.071,1.345,1.345,0,0,1-.662-.475,4.583,4.583,0,0,1-.763-2.251,12.408,12.408,0,0,1,0-2.7q1.365-2.308,2.556-4.722a53.35,53.35,0,0,0,2.529-5.985,32.747,32.747,0,0,0,1.578-6.292l-.254-.06a52.527,52.527,0,0,1-2.54,5.842c-.954,1.888-1.987,3.745-3.082,5.541s-2.248,3.594-3.444,5.321-2.442,3.477-3.7,5.1l-.041.054-.038.062a20.267,20.267,0,0,1-1.319,1.866,6.367,6.367,0,0,1-.7.721,2.148,2.148,0,0,1-.461.312,1.9,1.9,0,0,1-.381-.632,8.062,8.062,0,0,1-.5-2.064l-.3-2.392-.6.6-2.662.67a13.027,13.027,0,0,0-4.434,2.115,16.992,16.992,0,0,0-1.659,1.356,1.4,1.4,0,0,1,.087-.165c1.226-1.871,2.33-3.8,3.406-5.768s2.09-3.976,3.036-6.007,1.85-4.085,2.673-6.165,1.6-4.174,2.292-6.305l-.243-.087c-.782,2.083-1.659,4.147-2.575,6.173s-1.877,4.04-2.9,6.018A102.743,102.743,0,0,1,54.394,47.9v.014l-.016.027a14.858,14.858,0,0,0-.79,1.551,5.955,5.955,0,0,0-.308.9,1.774,1.774,0,0,0-.046.664,1.082,1.082,0,0,0,.272.6,1.033,1.033,0,0,0,.717.29h.351l.237-.288a15.91,15.91,0,0,1,1.523-1.546,16.714,16.714,0,0,1,1.733-1.334c.327-.217.659-.412,1-.6-.011.019-.036.038-.036.06a4.71,4.71,0,0,0-.409.906,2.513,2.513,0,0,0-.106.667,1.544,1.544,0,0,0,.341.987,1.607,1.607,0,0,0,.872.542,2.6,2.6,0,0,0,.657.068,5.314,5.314,0,0,0,.921-.111,6.138,6.138,0,0,0,.793-.168,4.69,4.69,0,0,0,.818-.309,3.425,3.425,0,0,0,.817-.543,3.985,3.985,0,0,0,.433.6,2.523,2.523,0,0,0,.975.683,2.484,2.484,0,0,0,1.292.127,3.786,3.786,0,0,0,1.709-.827A8.444,8.444,0,0,0,69.2,49.815a16.271,16.271,0,0,0,1.531-2.129c.63-.836,1.229-1.676,1.8-2.533a7.6,7.6,0,0,0,.272.99,5.578,5.578,0,0,0,.954,1.752,3.8,3.8,0,0,0,1.869,1.248,4.517,4.517,0,0,0,.507.119,3.936,3.936,0,0,0,.324,1.191c-1.551.45-3.079.955-4.605,1.535-.766.3-1.537.627-2.3,1.011a9.274,9.274,0,0,0-2.251,1.513,3.639,3.639,0,0,0-.509.675,2.225,2.225,0,0,0-.3,1.036,1.954,1.954,0,0,0,.319,1.085,2.485,2.485,0,0,0,.45.542c-7.96-.4-15.93-.624-23.9-.588-6.423.043-12.857.26-19.258.844q-3.131.287-6.252.722A39.776,39.776,0,0,1,13.2,40.108,40.2,40.2,0,0,1,53.5,0h.005A40.2,40.2,0,0,1,93.8,40.1a39.786,39.786,0,0,1-6.406,21.708ZM31.828,38.78c-4.2,6.278-8.472,12.516-13.08,18.483l.545.445c3.117-3.748,6.077-7.632,8.992-11.54q2.058-2.788,4.088-5.6c.272.746.529,1.484.817,2.216.583,1.551,1.235,3.064,1.908,4.57.183.38.365.762.545,1.139-.256.854-.558,1.69-.9,2.519-.294.711-.619,1.413-.965,2.1l-.272.518-.253.542c-.076.182-.158.358-.234.559l-.03.073-.019.062c-.016.016-.016.005-.016.054v.054c.068.165-.115.277.4.437.433-.13.155-.068.272-.111a.353.353,0,0,0,.044-.046l.025-.033.022-.024.044-.06.174-.236a43.57,43.57,0,0,1,2.978-3.58.318.318,0,0,0,.03-.027c-.038.217-.074.437-.1.656a26.35,26.35,0,0,0-.223,3.691l.3.024a34.57,34.57,0,0,1,.8-3.526c.232-.814.512-1.627.817-2.441.564-.542,1.147-1.055,1.741-1.543A13.369,13.369,0,0,1,42.069,46.9a3.224,3.224,0,0,1,.447-.217,4.372,4.372,0,0,1-.071.5,5.281,5.281,0,0,1-.333,1.085,9.976,9.976,0,0,1-.52,1.058l-.33.569-.191.317c-.027.062-.063.127-.115.222-.019.051-.046.106-.087.222a.884.884,0,0,0-.033.133.716.716,0,0,0-.019.125v.179a1.412,1.412,0,0,0,.049.323,1.325,1.325,0,0,0,.409.632,1.152,1.152,0,0,0,.371.214,1.012,1.012,0,0,0,.2.054.444.444,0,0,0,.131.024,1.3,1.3,0,0,0,.4-.03l.289-.057.256-.212c.613-.5,1.175-.992,1.749-1.508s1.134-1.041,1.679-1.6c.2-.2.392-.4.578-.6-.033.908-.082,1.828-.142,2.745l-.063.992.886.236a1.027,1.027,0,0,0,.223.046l.164.022a2.982,2.982,0,0,0,.3.019,3.789,3.789,0,0,0,.559-.043,4.757,4.757,0,0,0,1.022-.271,5.732,5.732,0,0,0,1.657-1.028,9.636,9.636,0,0,0,2.117-2.818,17.443,17.443,0,0,0,1.188-3.1,23.808,23.808,0,0,0,.662-3.192l-.251-.071c-.417,1-.858,1.961-1.33,2.9a19.706,19.706,0,0,1-1.6,2.666A8.286,8.286,0,0,1,50.306,49.5a3.843,3.843,0,0,1-1.033.51c.1-.751.2-1.508.272-2.27.057-.6.1-1.212.117-1.85a9.991,9.991,0,0,0-.022-1.014,4.392,4.392,0,0,0-.1-.659c-.027-.082-.044-.155-.087-.258a1.521,1.521,0,0,0-.649-.8,1.44,1.44,0,0,0-.9-.209,1.546,1.546,0,0,0-.714.255,1.413,1.413,0,0,0-.188.16l-.085.079-.093.122-.139.182-.09.3a2.889,2.889,0,0,1-.308.618,8.249,8.249,0,0,1-.559.795c-.292.385-.616.767-.959,1.145a3.2,3.2,0,0,0-.022-.353,1.961,1.961,0,0,1-.036-.233L44.7,45.9c-.011-.057-.013-.079-.038-.179l-.036-.108-.043-.09a1.862,1.862,0,0,0-.374-.51,1.666,1.666,0,0,0-.64-.4,1.985,1.985,0,0,0-1.193-.019,4.093,4.093,0,0,0-1.346.705,10.812,10.812,0,0,0-1.153,1.014c.578-1.437,1.172-2.878,1.749-4.318.935-2.257,1.815-4.524,2.725-6.78l2.643-6.8q2.6-6.83,4.93-13.747c.766-2.313,1.529-4.621,2.232-6.989.174-.6.343-1.188.5-1.85.033-.157.076-.331.106-.542a2.347,2.347,0,0,0,.027-.518,1.131,1.131,0,0,0-.016-.165,1.778,1.778,0,0,0-.079-.239,1.416,1.416,0,0,0-.3-.474,1.393,1.393,0,0,0-.9-.423,1.336,1.336,0,0,0-.635.114,2.673,2.673,0,0,0-.248.138c-.079.057-.084.071-.128.1a.628.628,0,0,0-.085.079,2.875,2.875,0,0,0-.294.353c-.063.089-.117.168-.161.244-.106.165-.194.3-.272.436-.632,1.131-1.155,2.216-1.7,3.317-1.082,2.17-2.158,4.356-3.248,6.509-.55,1.082-1.12,2.159-1.681,3.211s-1.172,2.075-1.8,3.113c-2.518,4.136-5.156,8.22-7.821,12.288-.147.206-.281.415-.42.621a8.345,8.345,0,0,0-1.09-.814l.126.079a2.881,2.881,0,0,0-.965-.464,1.517,1.517,0,0,0-.463-.041,1.474,1.474,0,0,0-.594.144,1.594,1.594,0,0,0-.749.765,2.547,2.547,0,0,0-.221,1.05,6.222,6.222,0,0,0,.027.765,17.421,17.421,0,0,0,.545,2.571l.005-.011C31.681,38.291,31.752,38.533,31.828,38.78ZM17.853,58.827l.078.146c-1.9.2-3.38.369-3.38.369Q16.2,59.06,17.853,58.827Zm15.217-4.044Zm10.2-3.347v.038A.247.247,0,0,1,43.268,51.437Zm-7.488-.187c.2-.415.4-.841.594-1.264.049.1.1.2.153.3-.112.144-.226.285-.338.434l-.409.542Zm18.9-.38v0Zm-6.428-.77h.025ZM36.817,48.961c.259-.637.493-1.28.7-1.942a17.21,17.21,0,0,0,.853-4.827h.011a10.759,10.759,0,0,0-2.2-6.981c.218-.3.425-.6.638-.906,2.785-3.987,5.543-8.014,8.2-12.123.654-1.022,1.319-2.064,1.937-3.149.136-.249.272-.48.409-.722-1.109,3.024-2.2,6.059-3.229,9.11l-2.319,6.911c-.741,2.319-1.49,4.627-2.21,6.962s-1.409,4.667-2.019,7.051c-.068.285-.142.556-.2.827q-.2.244-.384.488C36.951,49.424,36.88,49.194,36.817,48.961Zm41.6.55h0Zm-17.669-.328a9.96,9.96,0,0,1,.771-1.2c.229-.317.482-.637.736-.938a1.628,1.628,0,0,0-.027.233,1.8,1.8,0,0,0,.036.366,1.155,1.155,0,0,0,.038.149l.022.06.036.108a.861.861,0,0,1,.041.542.97.97,0,0,1-.461.442,2.545,2.545,0,0,1-.45.2,3.778,3.778,0,0,1-.477.127l-.106.019c-.084.024-.166.041-.24.06A1.627,1.627,0,0,1,60.746,49.183Zm5.278-.027a.073.073,0,0,1,.033.013c.013.008.017.014.013.014A.126.126,0,0,1,66.024,49.156Zm-1.548-2.034v0a.08.08,0,0,1,0,.022ZM42.81,46.6h.035c.035-.008.054,0,.053,0s-.008.006-.025.006A.277.277,0,0,1,42.81,46.6Zm-7.916-4.385c-.338-1.272-.692-2.533-.995-3.8.3-.41.591-.819.88-1.237a9.092,9.092,0,0,1,.589.982,10.266,10.266,0,0,1,1.09,4.068,16.064,16.064,0,0,1-.322,4.312ZM83.039,46.1h0ZM46.886,44.917v.03A.121.121,0,0,1,46.886,44.917ZM33.368,35.639c.046.041.1.081.155.125l.191.176c-.085.128-.172.247-.256.377C33.422,36.084,33.392,35.856,33.368,35.639ZM54.247,5.755C54.26,5.739,54.277,5.725,54.247,5.755Z" fill="#fff"/>
</svg>
