<svg xmlns="http://www.w3.org/2000/svg" width="15.927" height="14.525" viewBox="0 0 15.927 14.525">
  <g id="Icon_feather-arrow-right" data-name="Icon feather-arrow-right" transform="translate(-5.372 -6.5)">
    <path id="Path_89" data-name="Path 89" d="M21.427,19H7.5a1,1,0,0,1,0-2H21.427a1,1,0,0,1,0,2Z" transform="translate(-1.128 -4.237)" fill="#0856a2"/>
    <path id="Path_90" data-name="Path 90" d="M18,21.025a1,1,0,0,1-.707-1.707l5.556-5.556L17.293,8.207a1,1,0,0,1,1.414-1.414l6.263,6.263a1,1,0,0,1,0,1.414l-6.263,6.263A1,1,0,0,1,18,21.025Z" transform="translate(-3.963)" fill="#0856a2"/>
  </g>
</svg>
