<svg xmlns="http://www.w3.org/2000/svg" width="18.955" height="14.495" viewBox="0 0 18.955 14.495">
  <path id="Path_143" data-name="Path 143" d="M2323.5-221.7h-15.623a1.672,1.672,0,0,0-1.666,1.672v11.15a1.672,1.672,0,0,0,1.666,1.673H2323.5a1.672,1.672,0,0,0,1.666-1.673v-11.15A1.671,1.671,0,0,0,2323.5-221.7Zm-.23,1.115-7.546,7.576-7.611-7.576Zm-15.948,11.477v-10.693l5.349,5.323Zm.785.789,5.352-5.373,1.875,1.866a.554.554,0,0,0,.784,0l1.829-1.836,5.323,5.344Zm15.948-.789-5.323-5.344,5.323-5.345Z" transform="translate(-2306.211 221.705)" fill="#999" fill-rule="evenodd"/>
</svg>
