<svg xmlns="http://www.w3.org/2000/svg" width="19.001" height="18.988" viewBox="0 0 19.001 18.988">
  <path id="Union_12" data-name="Union 12" d="M-2489.278,805.969a9.267,9.267,0,0,1-3.347-.986,17.889,17.889,0,0,1-5.962-4.655,16.316,16.316,0,0,1-2.91-4.841,6.63,6.63,0,0,1-.488-2.815,2.776,2.776,0,0,1,.826-1.765l1.293-1.3.007-.007a1.868,1.868,0,0,1,1.294-.559,1.8,1.8,0,0,1,1.274.559c.248.228.487.47.716.706.114.122.236.242.354.36l1.038,1.037a1.736,1.736,0,0,1,0,2.624l-.319.323c-.282.284-.572.58-.883.865a7.7,7.7,0,0,0,1.027,1.616,13.064,13.064,0,0,0,3.132,2.846c.11.068.239.133.376.2.094.049.193.1.292.152l1.2-1.2a1.835,1.835,0,0,1,1.3-.584,1.772,1.772,0,0,1,1.286.589l2.088,2.09a1.821,1.821,0,0,1,.586,1.3,1.887,1.887,0,0,1-.574,1.312c-.164.171-.33.335-.494.49a8.592,8.592,0,0,0-.666.688c0,.006-.012.011-.015.019a2.87,2.87,0,0,1-2.2.94C-2489.114,805.977-2489.2,805.973-2489.278,805.969Zm-9.858-15.635-1.3,1.293a1.737,1.737,0,0,0-.525,1.127,5.4,5.4,0,0,0,.426,2.375,15.423,15.423,0,0,0,2.74,4.549,16.893,16.893,0,0,0,5.615,4.387,8.272,8.272,0,0,0,2.968.887c.057,0,.118,0,.175,0a1.834,1.834,0,0,0,1.43-.6,10.157,10.157,0,0,1,.735-.759c.164-.159.316-.3.464-.463a.75.75,0,0,0,0-1.188l-2.1-2.091-.008-.007a.769.769,0,0,0-.547-.277.86.86,0,0,0-.575.284l-1.3,1.3a.81.81,0,0,1-.578.261.836.836,0,0,1-.377-.094c-.015-.007-.03-.019-.045-.026-.111-.069-.24-.132-.377-.2-.152-.076-.311-.157-.468-.255a13.906,13.906,0,0,1-3.379-3.065l0,0a8.311,8.311,0,0,1-1.229-2,.339.339,0,0,1-.012-.034.771.771,0,0,1,.2-.86c0-.007.012-.012.019-.019.331-.3.635-.6.955-.926.111-.107.217-.217.328-.327a.722.722,0,0,0,0-1.174l-1.039-1.037c-.123-.126-.244-.247-.362-.369-.232-.238-.453-.463-.685-.68l-.012-.01a.81.81,0,0,0-.555-.266A.864.864,0,0,0-2499.135,790.334Zm12.73,12.8,0,0S-2486.407,803.132-2486.4,803.132Zm-1.879-6.88a4.822,4.822,0,0,0-1.363-2.617,4.833,4.833,0,0,0-2.624-1.36.506.506,0,0,1-.415-.592.516.516,0,0,1,.593-.416,5.868,5.868,0,0,1,3.177,1.643,5.852,5.852,0,0,1,1.648,3.168.514.514,0,0,1-.423.592.715.715,0,0,1-.087.007A.509.509,0,0,1-2488.284,796.253Zm3.264-.156a8.59,8.59,0,0,0-2.424-4.663,8.654,8.654,0,0,0-4.676-2.417.515.515,0,0,1-.422-.592.511.511,0,0,1,.589-.418,9.661,9.661,0,0,1,5.232,2.705,9.623,9.623,0,0,1,2.712,5.217.5.5,0,0,1-.419.584.557.557,0,0,1-.087.007A.509.509,0,0,1-2485.02,796.1Z" transform="translate(2502.5 -787.489)" fill="#999" stroke="rgba(0,0,0,0)" stroke-miterlimit="10" stroke-width="1"/>
</svg>
