<svg xmlns="http://www.w3.org/2000/svg" width="17.5" height="14.183" viewBox="0 0 17.5 14.183">
  <path id="Path_91" data-name="Path 91" d="M595.841-1297.831a7.489,7.489,0,0,1-1.8,1.849q.011.155.011.466a10.144,10.144,0,0,1-.422,2.875,10.388,10.388,0,0,1-1.282,2.753,10.833,10.833,0,0,1-2.049,2.333,9.116,9.116,0,0,1-2.865,1.618,10.477,10.477,0,0,1-3.586.6,9.98,9.98,0,0,1-5.508-1.606,7.757,7.757,0,0,0,.866.044,7.031,7.031,0,0,0,4.453-1.529,3.5,3.5,0,0,1-2.087-.715,3.5,3.5,0,0,1-1.266-1.768,4.455,4.455,0,0,0,.677.056,3.743,3.743,0,0,0,.944-.121,3.534,3.534,0,0,1-2.06-1.236,3.455,3.455,0,0,1-.816-2.277v-.044a3.553,3.553,0,0,0,1.621.454,3.582,3.582,0,0,1-1.166-1.274,3.484,3.484,0,0,1-.433-1.707,3.5,3.5,0,0,1,.489-1.806,10.152,10.152,0,0,0,3.27,2.643,10.008,10.008,0,0,0,4.125,1.1,3.96,3.96,0,0,1-.089-.82,3.447,3.447,0,0,1,1.049-2.533,3.462,3.462,0,0,1,2.538-1.047,3.459,3.459,0,0,1,2.62,1.13,7.067,7.067,0,0,0,2.276-.864,3.479,3.479,0,0,1-1.577,1.973A7.207,7.207,0,0,0,595.841-1297.831Z" transform="translate(-578.341 1299.516)" fill="#fff"/>
</svg>
