<svg xmlns="http://www.w3.org/2000/svg" width="28.282" height="22.922" viewBox="0 0 28.282 22.922">
  <path id="Path_76" data-name="Path 76" d="M606.623-1296.794a12.1,12.1,0,0,1-2.908,2.989q.018.251.018.753a16.393,16.393,0,0,1-.682,4.647,16.789,16.789,0,0,1-2.072,4.45,17.509,17.509,0,0,1-3.311,3.77,14.731,14.731,0,0,1-4.63,2.614,16.936,16.936,0,0,1-5.8.976,16.128,16.128,0,0,1-8.9-2.6,12.532,12.532,0,0,0,1.4.072,11.363,11.363,0,0,0,7.2-2.472,5.663,5.663,0,0,1-3.374-1.155,5.664,5.664,0,0,1-2.046-2.858,7.159,7.159,0,0,0,1.094.091,6.04,6.04,0,0,0,1.526-.2,5.71,5.71,0,0,1-3.328-2,5.584,5.584,0,0,1-1.319-3.68v-.072a5.739,5.739,0,0,0,2.62.734,5.789,5.789,0,0,1-1.885-2.058,5.632,5.632,0,0,1-.7-2.758,5.66,5.66,0,0,1,.79-2.919,16.408,16.408,0,0,0,5.285,4.271,16.173,16.173,0,0,0,6.667,1.783,6.4,6.4,0,0,1-.144-1.326,5.57,5.57,0,0,1,1.7-4.093,5.6,5.6,0,0,1,4.1-1.691,5.591,5.591,0,0,1,4.235,1.826,11.422,11.422,0,0,0,3.679-1.4,5.623,5.623,0,0,1-2.548,3.188A11.646,11.646,0,0,0,606.623-1296.794Z" transform="translate(-578.341 1299.516)" fill="#707070"/>
</svg>
