<svg xmlns="http://www.w3.org/2000/svg" width="26.177" height="17.46" viewBox="0 0 26.177 17.46">
  <path id="Path_78" data-name="Path 78" d="M778.361-1356.014c0-.01,0-.021-.007-.031a3.584,3.584,0,0,0-2.595-2.485c-2-.456-9.628-.461-9.952-.461s-7.955.006-9.97.509a3.585,3.585,0,0,0-2.584,2.511,29.491,29.491,0,0,0-.534,5.728,29.456,29.456,0,0,0,.546,5.823,3.6,3.6,0,0,0,2.579,2.382c2.008.5,9.639.507,9.963.507s7.954-.006,9.97-.509a3.581,3.581,0,0,0,2.584-2.511,29.485,29.485,0,0,0,.534-5.685A29.481,29.481,0,0,0,778.361-1356.014Zm-8.3,6.192-6.572,3.49a.545.545,0,0,1-.254.062.541.541,0,0,1-.259-.065.476.476,0,0,1-.256-.415v-6.979a.476.476,0,0,1,.256-.416.547.547,0,0,1,.513,0l6.572,3.49a.476.476,0,0,1,.26.418A.475.475,0,0,1,770.062-1349.822Z" transform="translate(-752.719 1358.991)" fill="#707070"/>
</svg>
